<svg id="Componente_54_1" data-name="Componente 54 – 1" xmlns="http://www.w3.org/2000/svg" width="152.174" height="26.734" viewBox="0 0 152.174 26.734">
  <g id="Page-1" transform="translate(77.827)">
    <g id="Artboard" transform="translate(0 0)">
      <g id="vtex-logo" transform="translate(0 0)">
        <path id="Shape" d="M194.52,34.49h-2.665v9.124a.315.315,0,0,1-.312.312H189.49a.315.315,0,0,1-.312-.312V34.49h-2.685a.3.3,0,0,1-.312-.3V32.577a.3.3,0,0,1,.312-.3h8.023a.315.315,0,0,1,.329.3v1.616A.315.315,0,0,1,194.52,34.49Z" transform="translate(-140.783 -24.478)" fill="#f36"/>
        <path id="path9" d="M233.743,43.43a20.521,20.521,0,0,1-3.173.205c-2.023,0-3.81-.517-3.81-3.371V35.058c0-2.853,1.8-3.354,3.825-3.354a20.257,20.257,0,0,1,3.149.2c.22.032.312.11.312.312v1.464a.315.315,0,0,1-.312.312h-3.3c-.732,0-1,.244-1,1.067v1.425h4.183a.315.315,0,0,1,.312.312v1.489a.315.315,0,0,1-.312.312h-4.183v1.662c0,.815.266,1.067,1,1.067h3.3a.315.315,0,0,1,.312.312v1.464C234.058,43.3,233.963,43.4,233.743,43.43Z" transform="translate(-171.458 -24.042)" fill="#f36"/>
        <path id="path11" d="M272.867,43.918h-2.492a.412.412,0,0,1-.408-.244l-2.163-3.417-1.953,3.354c-.11.188-.22.312-.393.312h-2.314a.208.208,0,0,1-.244-.205.291.291,0,0,1,.032-.11l3.4-5.66L262.9,32.568a.222.222,0,0,1-.032-.1.227.227,0,0,1,.244-.205h2.524c.173,0,.3.156.393.3l2.006,3.173,1.953-3.173a.508.508,0,0,1,.393-.3H272.7a.227.227,0,0,1,.244.205.223.223,0,0,1-.032.1L269.5,37.979l3.556,5.614a.351.351,0,0,1,.046.156A.221.221,0,0,1,272.867,43.918Z" transform="translate(-198.755 -24.469)" fill="#f36"/>
        <path id="path13" d="M146.131,32.41a.244.244,0,0,0-.244.193l-2.277,8.426c-.032.173-.078.244-.22.244s-.188-.063-.22-.244L140.9,32.6a.244.244,0,0,0-.244-.193h-2.241a.244.244,0,0,0-.244.3s2.78,9.658,2.809,9.763a2.364,2.364,0,0,0,2.416,1.709,2.441,2.441,0,0,0,2.416-1.709c.044-.132,2.763-9.763,2.763-9.763a.244.244,0,0,0-.244-.3Z" transform="translate(-104.488 -24.577)" fill="#f36"/>
        <path id="path15" d="M29.13.32H5.767A2.426,2.426,0,0,0,3.641,3.873L5.979,8.325H1.742A1.528,1.528,0,0,0,.365,10.571L7.883,24.776a1.557,1.557,0,0,0,2.753,0l2.04-3.849,2.563,4.847a2.4,2.4,0,0,0,4.249,0L31.2,3.747A2.329,2.329,0,0,0,29.13.32ZM18.691,9.626l-5.126,9.612a1.015,1.015,0,0,1-1.794,0L6.711,9.719A.945.945,0,0,1,7.546,8.33H17.9a.881.881,0,0,1,.791,1.3Z" transform="translate(-0.186 -0.32)" fill="#f36"/>
      </g>
    </g>
  </g>
  <path id="Caminho_3860" data-name="Caminho 3860" d="M-65.8-8.46h3.348a3.035,3.035,0,0,1,2.07.648,2.314,2.314,0,0,1,.738,1.836,2.341,2.341,0,0,1-.744,1.848,3,3,0,0,1-2.064.66h-2.364V0H-65.8Zm3.252,4.176q1.932,0,1.932-1.692,0-1.668-1.932-1.668h-2.268v3.36ZM-55.968.084a2.813,2.813,0,0,1-1.458-.372A2.479,2.479,0,0,1-58.4-1.35a3.564,3.564,0,0,1-.342-1.6,3.564,3.564,0,0,1,.342-1.6,2.479,2.479,0,0,1,.972-1.062,2.813,2.813,0,0,1,1.458-.372,2.846,2.846,0,0,1,1.464.372,2.468,2.468,0,0,1,.978,1.062,3.564,3.564,0,0,1,.342,1.6,3.564,3.564,0,0,1-.342,1.6A2.468,2.468,0,0,1-54.5-.288,2.846,2.846,0,0,1-55.968.084Zm0-.8a1.608,1.608,0,0,0,1.326-.57,2.588,2.588,0,0,0,.462-1.662,2.573,2.573,0,0,0-.468-1.65,1.6,1.6,0,0,0-1.32-.582,1.6,1.6,0,0,0-1.32.582,2.573,2.573,0,0,0-.468,1.65A2.592,2.592,0,0,0-57.294-1.3,1.6,1.6,0,0,0-55.968-.72ZM-42.9-5.844-45.072,0h-.936l-1.644-4.524L-49.308,0h-.924L-52.4-5.844H-51.4l1.656,4.692,1.692-4.692h.84l1.668,4.692,1.668-4.692Zm6.024,3.072h-4.272A2.3,2.3,0,0,0-40.6-1.23a1.893,1.893,0,0,0,1.428.522A2.893,2.893,0,0,0-37.3-1.4l.324.708a2.739,2.739,0,0,1-.984.57,3.68,3.68,0,0,1-1.224.21,2.874,2.874,0,0,1-2.154-.8,3.04,3.04,0,0,1-.786-2.22,3.485,3.485,0,0,1,.348-1.59A2.6,2.6,0,0,1-40.794-5.6a2.7,2.7,0,0,1,1.434-.384,2.286,2.286,0,0,1,1.824.762,3.092,3.092,0,0,1,.66,2.094Zm-2.472-2.46a1.628,1.628,0,0,0-1.23.48A2.193,2.193,0,0,0-41.124-3.4h3.4a2.079,2.079,0,0,0-.444-1.362A1.489,1.489,0,0,0-39.348-5.232Zm7.212.084-.636.06a1.845,1.845,0,0,0-1.3.564,1.788,1.788,0,0,0-.4,1.188V0h-.972V-5.844h.948v1.02a2.148,2.148,0,0,1,1.932-1.14l.348-.024Zm5.7,2.376h-4.272a2.3,2.3,0,0,0,.552,1.542,1.893,1.893,0,0,0,1.428.522,2.893,2.893,0,0,0,1.872-.7l.324.708a2.739,2.739,0,0,1-.984.57,3.68,3.68,0,0,1-1.224.21,2.874,2.874,0,0,1-2.154-.8,3.04,3.04,0,0,1-.786-2.22,3.485,3.485,0,0,1,.348-1.59A2.6,2.6,0,0,1-30.354-5.6a2.7,2.7,0,0,1,1.434-.384,2.286,2.286,0,0,1,1.824.762,3.092,3.092,0,0,1,.66,2.094Zm-2.472-2.46a1.628,1.628,0,0,0-1.23.48A2.193,2.193,0,0,0-30.684-3.4h3.4a2.079,2.079,0,0,0-.444-1.362A1.489,1.489,0,0,0-28.908-5.232Zm9.084-3.228V0H-20.8V-1.068a1.928,1.928,0,0,1-.774.852,2.312,2.312,0,0,1-1.194.3A2.424,2.424,0,0,1-24.12-.3a2.535,2.535,0,0,1-.912-1.074,3.731,3.731,0,0,1-.324-1.6,3.661,3.661,0,0,1,.324-1.584,2.46,2.46,0,0,1,.912-1.056,2.482,2.482,0,0,1,1.356-.372,2.312,2.312,0,0,1,1.194.3,1.928,1.928,0,0,1,.774.852V-8.46ZM-22.572-.72A1.58,1.58,0,0,0-21.258-1.3a2.6,2.6,0,0,0,.462-1.65A2.571,2.571,0,0,0-21.258-4.6a1.587,1.587,0,0,0-1.314-.576A1.622,1.622,0,0,0-23.9-4.6a2.483,2.483,0,0,0-.474,1.62A2.6,2.6,0,0,0-23.9-1.314,1.6,1.6,0,0,0-22.572-.72Zm10.584-5.268a2.482,2.482,0,0,1,1.356.372A2.46,2.46,0,0,1-9.72-4.56,3.661,3.661,0,0,1-9.4-2.976a3.731,3.731,0,0,1-.324,1.6A2.535,2.535,0,0,1-10.632-.3a2.424,2.424,0,0,1-1.356.384,2.312,2.312,0,0,1-1.194-.3,1.928,1.928,0,0,1-.774-.852V0h-.972V-8.46h.972v3.624a1.928,1.928,0,0,1,.774-.852A2.312,2.312,0,0,1-11.988-5.988ZM-12.18-.72a1.584,1.584,0,0,0,1.32-.594,2.625,2.625,0,0,0,.468-1.662A2.5,2.5,0,0,0-10.86-4.6a1.6,1.6,0,0,0-1.32-.576,1.587,1.587,0,0,0-1.314.576,2.571,2.571,0,0,0-.462,1.644,2.6,2.6,0,0,0,.462,1.65A1.58,1.58,0,0,0-12.18-.72Zm9.324-5.112L-6.312,2.16h-1l.984-2.232L-8.8-5.832h1.032l1.956,4.776,1.98-4.776Zm2.088-.012v1.236H-1.992V-5.844Zm0,4.62V0H-1.992V-1.224Z" transform="translate(65.796 14.392)" fill="#313131"/>
</svg>
